<?xml version="1.0" encoding="UTF-8"?>
<svg id="Layer_2" data-name="Layer 2" xmlns="http://www.w3.org/2000/svg" viewBox="0 0 426.01 362.68">
  <g id="Layer_1-2" data-name="Layer 1">
    <path d="M425.78,121.79c-.55-1.88-5.12-7.84-6.54-9.91-11.91-17.37-25.46-36.61-38.62-52.97-3.99-4.97-7.61-8.48-12.51-12.53-19.48-16.1-41.54-30.13-61.31-46-5.43-1.24-8.59.62-12.65,3.78-3.9,3.04-8.2,6.96-11.84,10.35-5.85,5.45-21.55,20.31-23.97,27.11-1.58,4.45-1.76,6.52,1.41,10.12,10.16,11.53,11.34,15.96,21.78,27.73.27.3,8.18,11.82,7.77,12.46-.09.14-1.84,1.13-2.27,2.27-.9,2.4,4.35,5.95,4.37,6.56.01.35-4.07,4.28-4.73,5.05-17.59,20.46-47.87,49.16-73.67,72.47-25.8-23.3-56.08-52.01-73.67-72.47-.66-.77-4.74-4.7-4.73-5.05.02-.61,5.27-4.15,4.37-6.56-.43-1.14-2.18-2.13-2.27-2.27-.41-.64,7.5-12.16,7.77-12.46,10.44-11.77,11.62-16.2,21.78-27.73,3.17-3.59,2.99-5.66,1.41-10.12-2.42-6.81-18.11-21.66-23.97-27.11-3.64-3.39-7.94-7.31-11.84-10.35-4.05-3.16-7.22-5.01-12.65-3.78-19.77,15.87-41.83,29.9-61.31,46-4.91,4.05-8.52,7.57-12.51,12.53-13.16,16.36-26.71,35.59-38.62,52.97-1.42,2.07-5.98,8.02-6.54,9.91-1.21,4.11,2.64,11.31,5.01,14.66,6.72,9.51,25.21,28.53,36.21,31.82,2.42.72,6.84,2.08,8.77.15,11.63-11.98,28.25-18.73,40.32-30.27.52-.2,2.61,2.26,3.28,2.58,2.7,1.27,5.01-4.77,7.1-4.59.88.08,7.93,6.12,9.22,7.22,18.03,15.35,47.08,42.25,69.71,64.41-2.04,1.83-4.11,3.65-6.22,5.32-1.35,1.07-3.05,1.57-3.66,2.02-.55.41-4.04,4.93-5.32,6.09-8.69,7.9-17.5,15.38-25.91,23.54-3.05,2.96-9.3,10.28-12.3,12.03-1.09.63-4.04,1.22-4.4,2.56-.66,2.46-1.24,3.5-3.17,5.47-5.82,5.97-12.06,11.41-17.76,17.45-1.88,1.99-3.54,4.23-5.24,5.99-8.15,8.42-17.11,17.3-26.5,24.41-1.26.95-3.86,3.1-5.17,3.59-1.07.39-2.84.21-3.53.94-.51.54.08,1.06,0,1.21-.3.58-5.37,3.5-6.32,4.79-.4.55-.65,1.55-.66,2.23-.1,6.91,2.64,12.32,6.69,17.63,6.06,7.95,21.83,22.42,32.67,19.19,1.08-.32,5.02-3.57,5.65-4.55,1.53-2.38-.74-3.93,2.82-2.45.69-1.55-.2-3.52.55-4.94.46-.87,1.9-1.55,2.5-2.23,3.86-4.37,7.6-8.93,11.9-12.93l52.51-48.37c2.42-2.05,4.64-4.32,6.88-6.56,6.64-6.64,13.69-13.66,20.54-20.48,5.63-5.61,11.03-11.88,16.61-17.73,5.58,5.85,10.97,12.11,16.61,17.73,6.84,6.82,13.9,13.84,20.54,20.48,2.24,2.24,4.46,4.51,6.88,6.56l52.51,48.37c4.3,4,8.04,8.56,11.9,12.93.6.68,2.04,1.36,2.5,2.23.75,1.42-.14,3.38.55,4.94,3.56-1.48,1.29.08,2.82,2.45.63.98,4.57,4.23,5.65,4.55,10.84,3.23,26.61-11.24,32.67-19.19,4.04-5.31,6.78-10.72,6.69-17.63,0-.68-.26-1.67-.66-2.23-.94-1.29-6.01-4.21-6.32-4.79-.08-.16.51-.68,0-1.21-.69-.72-2.46-.54-3.53-.94-1.32-.49-3.92-2.64-5.17-3.59-9.38-7.11-18.34-15.99-26.5-24.41-1.7-1.75-3.36-4-5.24-5.99-5.7-6.03-11.94-11.48-17.76-17.45-1.92-1.97-2.51-3.01-3.17-5.47-.36-1.34-3.31-1.93-4.4-2.56-3-1.75-9.25-9.07-12.3-12.03-8.41-8.16-17.22-15.64-25.91-23.54-1.28-1.16-4.77-5.68-5.32-6.09-.61-.45-2.3-.95-3.66-2.02-2.1-1.67-4.18-3.48-6.22-5.32,22.62-22.16,51.67-49.06,69.71-64.41,1.3-1.1,8.34-7.14,9.22-7.22,2.09-.18,4.4,5.86,7.1,4.59.68-.32,2.77-2.78,3.28-2.58,12.07,11.54,28.69,18.29,40.32,30.27,1.93,1.93,6.35.58,8.77-.15,11-3.28,29.48-22.31,36.21-31.82,2.37-3.35,6.22-10.55,5.01-14.66Z"/>
  </g>
</svg>